# xmcd CD database file
#
# Track frame offsets:
#	150
#	38157
#	65786
#	93112
#	134830
#	189103
#	213561
#	235501
#	272879
#
# Disc length: 3986 seconds
#
# Revision: 0
# Processed by: cddbd v1.5.2PL0 Copyright (c) Steve Scherf et al.
# Submitted via: CDex 1.51
#
DISCID=800f9009
DTITLE=Various Artist - Prana Yoga
DYEAR=2017
DGENRE=New Age
TTITLE0=Purnima Namashkar/Chinmaya Dunster
TTITLE1=Om Purnam/Aasa
TTITLE2=Coming Home/Chinmaya Dunster
TTITLE3=Temple of Silence/Deuter
TTITLE4=On Sacred Ground/Chinmaya Dunster
TTITLE5=Sassi/Kamal
TTITLE6=Khajuraho/Chinmaya Dunster
TTITLE7=Earth and Sky/Terry Oldfield
TTITLE8=A Meeting Place for Friends/Chinmaya Dunster
EXTD=
EXTT0=
EXTT1=
EXTT2=
EXTT3=
EXTT4=
EXTT5=
EXTT6=
EXTT7=
EXTT8=
PLAYORDER=
